<svg width="25" height="25" viewBox="0 0 25 25" fill="none" xmlns="http://www.w3.org/2000/svg">
<g clip-path="url(#clip0_6_87)">
<path d="M16.5599 22.2793V18.4093C16.5974 17.9325 16.533 17.4531 16.371 17.0031C16.2089 16.5531 15.9529 16.1427 15.6199 15.7993C18.7599 15.4493 22.0599 14.2593 22.0599 8.7993C22.0597 7.40312 21.5226 6.06049 20.5599 5.0493C21.0158 3.8278 20.9836 2.47764 20.4699 1.2793C20.4699 1.2793 19.2899 0.929296 16.5599 2.7593C14.2679 2.13812 11.8519 2.13812 9.55994 2.7593C6.82994 0.929296 5.64994 1.2793 5.64994 1.2793C5.13631 2.47764 5.10408 3.8278 5.55994 5.0493C4.59006 6.068 4.05246 7.42276 4.05994 8.8293C4.05994 14.2493 7.35994 15.4393 10.4999 15.8293C10.1709 16.1693 9.9172 16.5747 9.75525 17.0192C9.59329 17.4637 9.52674 17.9374 9.55994 18.4093V22.2793M9.55994 19.2793C4.55994 20.7793 4.55994 16.7793 2.55994 16.2793L9.55994 19.2793Z" stroke="#444444" stroke-width="2" stroke-linecap="round" stroke-linejoin="round"/>
</g>
<defs>
<clipPath id="clip0_6_87">
<rect width="24" height="24" fill="white" transform="translate(0.559937 0.279297)"/>
</clipPath>
</defs>
</svg>
