<svg width="15" height="19" viewBox="0 0 15 19" fill="none" xmlns="http://www.w3.org/2000/svg">
<path d="M6.59091 18.4091C5.48485 18.4091 4.48106 18.2008 3.57954 17.7841C2.67803 17.3598 1.96212 16.75 1.43181 15.9545C0.901512 15.1515 0.63636 14.1818 0.63636 13.0455C0.63636 12.0455 0.83333 11.2348 1.22727 10.6136C1.62121 9.98485 2.14772 9.49242 2.80681 9.13636C3.46591 8.7803 4.19318 8.51515 4.98863 8.34091C5.79166 8.15909 6.59848 8.01515 7.40909 7.90909C8.46969 7.77273 9.32954 7.67045 9.98863 7.60227C10.6553 7.52651 11.1401 7.40151 11.4432 7.22727C11.7538 7.05303 11.9091 6.75 11.9091 6.31818V6.22727C11.9091 5.10606 11.6023 4.23485 10.9886 3.61364C10.3826 2.99242 9.46212 2.68182 8.22727 2.68182C6.94697 2.68182 5.94318 2.96212 5.21591 3.52273C4.48863 4.08333 3.97727 4.68182 3.68181 5.31818L1.13636 4.40909C1.59091 3.34848 2.19697 2.52273 2.95454 1.93182C3.71969 1.33333 4.55303 0.916666 5.45454 0.681818C6.36363 0.439394 7.25757 0.318182 8.13636 0.318182C8.69697 0.318182 9.34091 0.386363 10.0682 0.522726C10.803 0.651514 11.5114 0.920453 12.1932 1.32954C12.8826 1.73864 13.4545 2.35606 13.9091 3.18182C14.3636 4.00758 14.5909 5.11364 14.5909 6.5V18H11.9091V15.6364H11.7727C11.5909 16.0152 11.2879 16.4205 10.8636 16.8523C10.4394 17.2841 9.875 17.6515 9.17045 17.9545C8.46591 18.2576 7.60606 18.4091 6.59091 18.4091ZM7 16C8.0606 16 8.95454 15.7917 9.68182 15.375C10.4167 14.9583 10.9697 14.4205 11.3409 13.7614C11.7197 13.1023 11.9091 12.4091 11.9091 11.6818V9.22727C11.7955 9.36364 11.5455 9.48864 11.1591 9.60227C10.7803 9.70833 10.3409 9.80303 9.84091 9.88636C9.34848 9.96212 8.86742 10.0303 8.39772 10.0909C7.9356 10.1439 7.5606 10.1894 7.27272 10.2273C6.57575 10.3182 5.92424 10.4659 5.31818 10.6705C4.71969 10.8674 4.23484 11.1667 3.86363 11.5682C3.5 11.9621 3.31818 12.5 3.31818 13.1818C3.31818 14.1136 3.66288 14.8182 4.35227 15.2955C5.04924 15.7652 5.93181 16 7 16Z" fill="white"/>
</svg>
